<svg xmlns="http://www.w3.org/2000/svg" xmlns:xlink="http://www.w3.org/1999/xlink" id="Layer_1" data-name="Layer 1" viewBox="0 0 150 150"><defs><clipPath id="clip-path"><circle cx="19.65" cy="-405.67" r="75" style="fill:none"/></clipPath><clipPath id="clip-path-3"><circle cx="18.65" cy="-469.67" r="75" style="fill:none"/></clipPath><clipPath id="clip-path-4"><rect x="-12.4" y="35.22" width="174.76" height="80.49" style="fill:none"/></clipPath></defs><circle cx="75" cy="75" r="75" style="fill:#f4f0ea"/><g style="clip-path:url(#clip-path-4)"><path d="M82.53,93.57a3.75,3.75,0,0,1-3.75-3.75V60.89a3.75,3.75,0,0,1,7.5,0V89.82a3.75,3.75,0,0,1-3.75,3.75" style="fill:#fdb515"/><path d="M69.34,83.92a3.74,3.74,0,0,1-3.09-5.87L79.43,58.8A3.75,3.75,0,1,1,85.62,63L72.44,82.29a3.76,3.76,0,0,1-3.1,1.63" style="fill:#ffdf00"/><path d="M45,93.79a3.74,3.74,0,0,1-3.38-2.14L27.7,62.47a3.75,3.75,0,0,1,6.77-3.23L48.38,88.42a3.76,3.76,0,0,1-1.78,5,3.71,3.71,0,0,1-1.61.37" style="fill:#ffdf00"/><path d="M41.19,85.8H20.93a3.75,3.75,0,1,1,0-7.5H41.19a3.75,3.75,0,0,1,0,7.5" style="fill:#f7921e"/><path d="M17.12,93.79a3.71,3.71,0,0,1-1.61-.37,3.75,3.75,0,0,1-1.77-5l13.9-29.18a3.75,3.75,0,1,1,6.77,3.23L20.51,91.65a3.76,3.76,0,0,1-3.39,2.14" style="fill:#fdb515"/><path d="M136.59,89.19A4.63,4.63,0,1,1,132,84.57a4.62,4.62,0,0,1,4.62,4.62" style="fill:#f7921e"/><path d="M93.53,79.34h0a3.75,3.75,0,0,1-3.74-3.76A18.47,18.47,0,0,1,123.39,65a3.75,3.75,0,0,1-6.14,4.3,11,11,0,0,0-20,6.27,3.76,3.76,0,0,1-3.75,3.74" style="fill:#fdb515"/><path d="M108.21,93.77a18.27,18.27,0,0,1-10.54-3.34,18.51,18.51,0,0,1-7.89-14.77,3.74,3.74,0,0,1,3.67-3.82h.08a3.75,3.75,0,0,1,3.75,3.67A11,11,0,0,0,110.16,86.1a10.88,10.88,0,0,0,7.09-4.52,3.75,3.75,0,0,1,6.14,4.3,18.34,18.34,0,0,1-11.92,7.61,19,19,0,0,1-3.26.28" style="fill:#ffdf00"/><path d="M69.35,83.92a3.75,3.75,0,0,1-3.08-1.6L52.81,63.06A3.75,3.75,0,0,1,59,58.77L72.42,78a3.74,3.74,0,0,1-3.07,5.89" style="fill:#fdb515"/><path d="M55.91,93.57a3.75,3.75,0,0,1-3.75-3.75V60.89a3.75,3.75,0,0,1,7.5,0V89.82a3.75,3.75,0,0,1-3.75,3.75" style="fill:#f7921e"/></g></svg>